# xmcd
#
# Track frame offsets: 
#        150
#        15450
#        36632
#        56445
#        72632
#
# Disc length: 1169 seconds
#
# Revision: 0
# Processed by: cddbd v1.5.2PL0 Copyright (c) Steve Scherf et al.
# Submitted via: ExactAudioCopy v0.95a5
#
DISCID=43048f05
DTITLE=Deniz - Ich Bin Da (Single)
DYEAR=2001
DGENRE=R&B
TTITLE0=Ich Bin Da (Radio Edit)
TTITLE1=Ich Bin Da (Slow Remix)
TTITLE2=Ich Bin Da (Deniz_Im_Haus_remix)
TTITLE3=Ich Bin Da (Rap Version)
TTITLE4=Ich Bin Da (Instrumenatl Version)
EXTD=
EXTT0=
EXTT1=
EXTT2=
EXTT3=
EXTT4=
PLAYORDER=
